CharSymK-Regular.ufo
<glyph name="quotesingle" format="2">
  <advance width="391"/>
  <unicode hex="0027"/>
  <outline>
    <contour>
      <point x="298" y="1451" type="line"/>
      <point x="106" y="1451" type="line"/>
      <point x="106" y="1195" type="line"/>
      <point x="111" y="1177"/>
      <point x="130" y="1052"/>
      <point x="146" y="948" type="curve"/>
      <point x="258" y="948" type="line"/>
      <point x="258" y="989"/>
      <point x="287" y="1157"/>
      <point x="298" y="1195" type="curve"/>
    </contour>
  </outline>
</glyph>
<glyph name="asterisk" format="2">
  <advance width="797"/>
  <unicode hex="002A"/>
  <outline>
    <contour>
      <point x="713" y="1171" type="line"/>
      <point x="703" y="1218"/>
      <point x="687" y="1263"/>
      <point x="665" y="1307" type="curve"/>
      <point x="596" y="1284"/>
      <point x="524" y="1252"/>
      <point x="448" y="1211" type="curve"/>
      <point x="447" y="1220"/>
      <point x="446" y="1230"/>
      <point x="446" y="1241" type="curve" smooth="yes"/>
      <point x="446" y="1276"/>
      <point x="456" y="1323"/>
      <point x="456" y="1371" type="curve" smooth="yes"/>
      <point x="456" y="1396"/>
      <point x="454" y="1423"/>
      <point x="450" y="1450" type="curve"/>
      <point x="336" y="1450" type="line"/>
      <point x="332" y="1423"/>
      <point x="330" y="1396"/>
      <point x="330" y="1371" type="curve" smooth="yes"/>
      <point x="330" y="1323"/>
      <point x="340" y="1276"/>
      <point x="340" y="1241" type="curve" smooth="yes"/>
      <point x="340" y="1230"/>
      <point x="339" y="1220"/>
      <point x="338" y="1211" type="curve"/>
      <point x="262" y="1252"/>
      <point x="190" y="1284"/>
      <point x="121" y="1307" type="curve"/>
      <point x="99" y="1263"/>
      <point x="83" y="1218"/>
      <point x="73" y="1171" type="curve"/>
      <point x="317" y="1115" type="line"/>
      <point x="256" y="1050"/>
      <point x="201" y="989"/>
      <point x="154" y="932" type="curve"/>
      <point x="186" y="899"/>
      <point x="222" y="873"/>
      <point x="261" y="852" type="curve"/>
      <point x="393" y="1051" type="line"/>
      <point x="525" y="852" type="line"/>
      <point x="564" y="873"/>
      <point x="599" y="899"/>
      <point x="632" y="932" type="curve"/>
      <point x="585" y="989"/>
      <point x="530" y="1050"/>
      <point x="469" y="1115" type="curve"/>
    </contour>
  </outline>
</glyph>
<glyph name="slash" format="2">
  <advance width="569"/>
  <unicode hex="002F"/>
  <outline>
    <contour>
      <point x="434" y="1478" type="line"/>
      <point x="18" y="0" type="line"/>
      <point x="154" y="0" type="line"/>
      <point x="569" y="1478" type="line"/>
    </contour>
  </outline>
</glyph>
<glyph name="one" format="2">
  <advance width="1139"/>
  <unicode hex="0031"/>
  <outline>
    <contour>
      <point x="761" y="1450" type="line"/>
      <point x="661" y="1450" type="line"/>
      <point x="598" y="1320"/>
      <point x="365" y="1127"/>
      <point x="234" y="1087" type="curve"/>
      <point x="234" y="941" type="line"/>
      <point x="358" y="989"/>
      <point x="352" y="981"/>
      <point x="599" y="1156" type="curve"/>
      <point x="599" y="0" type="line"/>
      <point x="761" y="0" type="line"/>
    </contour>
  </outline>
</glyph>
<glyph name="nine" format="2">
  <advance width="1139"/>
  <unicode hex="0039"/>
  <outline>
    <contour>
      <point x="1033" y="749" type="curve" smooth="yes"/>
      <point x="1033" y="1204"/>
      <point x="862" y="1462"/>
      <point x="540" y="1462" type="curve" smooth="yes"/>
      <point x="272" y="1462"/>
      <point x="97" y="1239"/>
      <point x="97" y="962" type="curve" smooth="yes"/>
      <point x="97" y="689"/>
      <point x="279" y="499"/>
      <point x="520" y="499" type="curve" smooth="yes"/>
      <point x="677" y="499"/>
      <point x="804" y="563"/>
      <point x="872" y="703" type="curve"/>
      <point x="879" y="670"/>
      <point x="882" y="633"/>
      <point x="882" y="594" type="curve" smooth="yes"/>
      <point x="882" y="375"/>
      <point x="774" y="98"/>
      <point x="528" y="98" type="curve" smooth="yes"/>
      <point x="387" y="98"/>
      <point x="291" y="188"/>
      <point x="275" y="325" type="curve"/>
      <point x="244" y="325"/>
      <point x="151" y="317"/>
      <point x="126" y="311" type="curve"/>
      <point x="203" y="67"/>
      <point x="291" y="-20"/>
      <point x="520" y="-20" type="curve" smooth="yes"/>
      <point x="852" y="-20"/>
      <point x="1033" y="253"/>
    </contour>
    <contour>
      <point x="857" y="971" type="curve"/>
      <point x="825" y="783"/>
      <point x="724" y="633"/>
      <point x="565" y="633" type="curve" smooth="yes"/>
      <point x="401" y="633"/>
      <point x="265" y="779"/>
      <point x="265" y="959" type="curve" smooth="yes"/>
      <point x="265" y="1047"/>
      <point x="299" y="1132"/>
      <point x="355" y="1212" type="curve" smooth="yes"/>
      <point x="411" y="1293"/>
      <point x="485" y="1336"/>
      <point x="569" y="1336" type="curve" smooth="yes"/>
      <point x="649" y="1336"/>
      <point x="721" y="1305"/>
      <point x="773" y="1229" type="curve" smooth="yes"/>
      <point x="824" y="1156"/>
      <point x="857" y="1072"/>
    </contour>
  </outline>
</glyph>
<glyph name="colon" format="2">
  <advance width="569"/>
  <unicode hex="003A"/>
  <outline>
    <contour>
      <point x="386" y="1038" type="line"/>
      <point x="194" y="1038" type="line"/>
      <point x="194" y="847" type="line"/>
      <point x="386" y="847" type="line"/>
    </contour>
    <contour>
      <point x="386" y="192" type="line"/>
      <point x="194" y="192" type="line"/>
      <point x="194" y="0" type="line"/>
      <point x="386" y="0" type="line"/>
    </contour>
  </outline>
</glyph>
<glyph name="A" format="2">
  <advance width="1366"/>
  <unicode hex="0041"/>
  <outline>
    <contour>
      <point x="202" y="0" type="line"/>
      <point x="371" y="446" type="line"/>
      <point x="971" y="446" type="line"/>
      <point x="1140" y="0" type="line"/>
      <point x="1324" y="0" type="line"/>
      <point x="776" y="1450" type="line"/>
      <point x="566" y="1450" type="line"/>
      <point x="18" y="0" type="line"/>
    </contour>
    <contour>
      <point x="604" y="1075" type="line"/>
      <point x="623" y="1132"/>
      <point x="639" y="1169"/>
      <point x="671" y="1259" type="curve"/>
      <point x="703" y="1169"/>
      <point x="719" y="1132"/>
      <point x="738" y="1075" type="curve"/>
      <point x="920" y="579" type="line"/>
      <point x="422" y="579" type="line"/>
    </contour>
  </outline>
</glyph>
<glyph name="B" format="2">
  <advance width="1366"/>
  <unicode hex="0042"/>
  <outline>
    <contour>
      <point x="1239" y="412" type="curve" smooth="yes"/>
      <point x="1239" y="594"/>
      <point x="1171" y="674"/>
      <point x="951" y="768" type="curve"/>
      <point x="1099" y="843"/>
      <point x="1166" y="936"/>
      <point x="1166" y="1079" type="curve" smooth="yes"/>
      <point x="1166" y="1291"/>
      <point x="971" y="1450"/>
      <point x="770" y="1450" type="curve" smooth="yes"/>
      <point x="162" y="1450" type="line"/>
      <point x="162" y="0" type="line"/>
      <point x="795" y="0" type="line" smooth="yes"/>
      <point x="1051" y="0"/>
      <point x="1239" y="157"/>
    </contour>
    <contour>
      <point x="1011" y="1060" type="curve" smooth="yes"/>
      <point x="1011" y="913"/>
      <point x="910" y="830"/>
      <point x="746" y="830" type="curve" smooth="yes"/>
      <point x="337" y="830" type="line"/>
      <point x="337" y="1300" type="line"/>
      <point x="756" y="1300" type="line" smooth="yes"/>
      <point x="900" y="1300"/>
      <point x="1011" y="1208"/>
    </contour>
    <contour>
      <point x="1058" y="408" type="curve" smooth="yes"/>
      <point x="1058" y="260"/>
      <point x="935" y="150"/>
      <point x="787" y="150" type="curve" smooth="yes"/>
      <point x="337" y="150" type="line"/>
      <point x="337" y="672" type="line"/>
      <point x="770" y="672" type="line" smooth="yes"/>
      <point x="958" y="672"/>
      <point x="1058" y="583"/>
    </contour>
  </outline>
</glyph>
<glyph name="D" format="2">
  <advance width="1479"/>
  <unicode hex="0044"/>
  <outline>
    <contour>
      <point x="1351" y="724" type="curve" smooth="yes"/>
      <point x="1351" y="1153"/>
      <point x="1132" y="1450"/>
      <point x="777" y="1450" type="curve" smooth="yes"/>
      <point x="170" y="1450" type="line"/>
      <point x="170" y="0" type="line"/>
      <point x="761" y="0" type="line" smooth="yes"/>
      <point x="1129" y="0"/>
      <point x="1351" y="277"/>
    </contour>
    <contour>
      <point x="1168" y="732" type="curve" smooth="yes"/>
      <point x="1168" y="367"/>
      <point x="1006" y="150"/>
      <point x="728" y="150" type="curve" smooth="yes"/>
      <point x="345" y="150" type="line"/>
      <point x="345" y="1300" type="line"/>
      <point x="769" y="1300" type="line" smooth="yes"/>
      <point x="1029" y="1300"/>
      <point x="1168" y="1096"/>
    </contour>
  </outline>
</glyph>
<glyph name="F" format="2">
  <advance width="1251"/>
  <unicode hex="0046"/>
  <outline>
    <contour>
      <point x="1136" y="1450" type="line"/>
      <point x="178" y="1450" type="line"/>
      <point x="178" y="0" type="line"/>
      <point x="345" y="0" type="line"/>
      <point x="345" y="684" type="line"/>
      <point x="1031" y="684" type="line"/>
      <point x="1031" y="826" type="line"/>
      <point x="345" y="826" type="line"/>
      <point x="345" y="1308" type="line"/>
      <point x="1136" y="1308" type="line"/>
    </contour>
  </outline>
</glyph>
<glyph name="G" format="2">
  <advance width="1593"/>
  <unicode hex="0047"/>
  <outline>
    <contour>
      <point x="1440" y="713" type="line"/>
      <point x="893" y="713" type="line"/>
      <point x="893" y="571" type="line"/>
      <point x="1282" y="571" type="line"/>
      <point x="1282" y="281" type="line"/>
      <point x="1170" y="185"/>
      <point x="994" y="122"/>
      <point x="846" y="122" type="curve" smooth="yes"/>
      <point x="506" y="122"/>
      <point x="296" y="344"/>
      <point x="296" y="720" type="curve" smooth="yes"/>
      <point x="296" y="1084"/>
      <point x="495" y="1325"/>
      <point x="834" y="1325" type="curve" smooth="yes"/>
      <point x="939" y="1325"/>
      <point x="1027" y="1303"/>
      <point x="1098" y="1260" type="curve" smooth="yes"/>
      <point x="1186" y="1207"/>
      <point x="1217" y="1166"/>
      <point x="1278" y="1014" type="curve"/>
      <point x="1423" y="1056" type="line"/>
      <point x="1338" y="1336"/>
      <point x="1149" y="1469"/>
      <point x="838" y="1469" type="curve" smooth="yes"/>
      <point x="399" y="1469"/>
      <point x="121" y="1180"/>
      <point x="121" y="716" type="curve" smooth="yes"/>
      <point x="121" y="264"/>
      <point x="391" y="-20"/>
      <point x="850" y="-20" type="curve" smooth="yes"/>
      <point x="1074" y="-20"/>
      <point x="1283" y="69"/>
      <point x="1440" y="202" type="curve"/>
    </contour>
  </outline>
</glyph>
<glyph name="H" format="2">
  <advance width="1479"/>
  <unicode hex="0048"/>
  <outline>
    <contour>
      <point x="1296" y="1450" type="line"/>
      <point x="1129" y="1450" type="line"/>
      <point x="1129" y="839" type="line"/>
      <point x="345" y="839" type="line"/>
      <point x="345" y="1450" type="line"/>
      <point x="178" y="1450" type="line"/>
      <point x="178" y="0" type="line"/>
      <point x="345" y="0" type="line"/>
      <point x="345" y="697" type="line"/>
      <point x="1129" y="697" type="line"/>
      <point x="1129" y="0" type="line"/>
      <point x="1296" y="0" type="line"/>
    </contour>
  </outline>
</glyph>
<glyph name="J" format="2">
  <advance width="1024"/>
  <unicode hex="004A"/>
  <outline>
    <contour>
      <point x="887" y="1450" type="line"/>
      <point x="719" y="1450" type="line"/>
      <point x="719" y="375" type="line" smooth="yes"/>
      <point x="719" y="231"/>
      <point x="632" y="132"/>
      <point x="483" y="132" type="curve" smooth="yes"/>
      <point x="319" y="132"/>
      <point x="270" y="200"/>
      <point x="249" y="413" type="curve"/>
      <point x="104" y="391" type="line"/>
      <point x="104" y="118"/>
      <point x="239" y="-20"/>
      <point x="487" y="-20" type="curve" smooth="yes"/>
      <point x="723" y="-20"/>
      <point x="887" y="130"/>
      <point x="887" y="359" type="curve" smooth="yes"/>
    </contour>
  </outline>
</glyph>
<glyph name="V" format="2">
  <advance width="1366"/>
  <unicode hex="0056"/>
  <outline>
    <contour>
      <point x="1168" y="1450" type="line"/>
      <point x="684" y="117" type="line"/>
      <point x="209" y="1450" type="line"/>
      <point x="26" y="1450" type="line"/>
      <point x="579" y="0" type="line"/>
      <point x="793" y="0" type="line"/>
      <point x="1336" y="1450" type="line"/>
    </contour>
  </outline>
</glyph>
<glyph name="Z" format="2">
  <advance width="1251"/>
  <unicode hex="005A"/>
  <outline>
    <contour>
      <point x="1184" y="146" type="line"/>
      <point x="238" y="146" type="line"/>
      <point x="1160" y="1294" type="line"/>
      <point x="1160" y="1450" type="line"/>
      <point x="148" y="1450" type="line"/>
      <point x="148" y="1304" type="line"/>
      <point x="964" y="1304" type="line"/>
      <point x="58" y="165" type="line"/>
      <point x="58" y="0" type="line"/>
      <point x="1184" y="0" type="line"/>
    </contour>
  </outline>
</glyph>
<glyph name="underscore" format="2">
  <advance width="1139"/>
  <unicode hex="005F"/>
  <outline>
    <contour>
      <point x="1139" y="-282" type="line"/>
      <point x="0" y="-282" type="line"/>
      <point x="0" y="-410" type="line"/>
      <point x="1139" y="-410" type="line"/>
    </contour>
  </outline>
</glyph>
<glyph name="grave" format="2">
  <advance width="682"/>
  <unicode hex="0060"/>
  <outline>
    <contour>
      <point x="341" y="1450" type="line"/>
      <point x="109" y="1450" type="line"/>
      <point x="333" y="1178" type="line"/>
      <point x="469" y="1178" type="line"/>
    </contour>
  </outline>
</glyph>
<glyph name="g" format="2">
  <advance width="1139"/>
  <unicode hex="0067"/>
  <outline>
    <contour>
      <point x="968" y="1054" type="line"/>
      <point x="825" y="1054" type="line"/>
      <point x="825" y="931" type="line"/>
      <point x="713" y="1043"/>
      <point x="647" y="1074"/>
      <point x="541" y="1074" type="curve" smooth="yes"/>
      <point x="297" y="1074"/>
      <point x="105" y="816"/>
      <point x="105" y="524" type="curve" smooth="yes"/>
      <point x="105" y="229"/>
      <point x="292" y="-20"/>
      <point x="541" y="-20" type="curve" smooth="yes"/>
      <point x="652" y="-20"/>
      <point x="692" y="-1"/>
      <point x="825" y="132" type="curve"/>
      <point x="823" y="-44" type="line"/>
      <point x="820" y="-193"/>
      <point x="712" y="-290"/>
      <point x="541" y="-290" type="curve" smooth="yes"/>
      <point x="398" y="-290"/>
      <point x="289" y="-224"/>
      <point x="262" y="-117" type="curve"/>
      <point x="134" y="-99" type="line"/>
      <point x="171" y="-303"/>
      <point x="327" y="-410"/>
      <point x="545" y="-410" type="curve" smooth="yes"/>
      <point x="795" y="-410"/>
      <point x="970" y="-264"/>
      <point x="970" y="-25" type="curve"/>
      <point x="969" y="140" type="line"/>
    </contour>
    <contour>
      <point x="825" y="524" type="curve" smooth="yes"/>
      <point x="825" y="302"/>
      <point x="708" y="116"/>
      <point x="541" y="116" type="curve" smooth="yes"/>
      <point x="374" y="116"/>
      <point x="241" y="303"/>
      <point x="241" y="524" type="curve" smooth="yes"/>
      <point x="241" y="736"/>
      <point x="372" y="940"/>
      <point x="541" y="940" type="curve" smooth="yes"/>
      <point x="711" y="940"/>
      <point x="825" y="759"/>
    </contour>
  </outline>
</glyph>
<glyph name="n" format="2">
  <advance width="1139"/>
  <unicode hex="006E"/>
  <outline>
    <contour>
      <point x="977" y="711" type="line" smooth="yes"/>
      <point x="977" y="882"/>
      <point x="802" y="1074"/>
      <point x="613" y="1074" type="curve" smooth="yes"/>
      <point x="500" y="1074"/>
      <point x="403" y="1026"/>
      <point x="296" y="919" type="curve"/>
      <point x="296" y="1054" type="line"/>
      <point x="162" y="1054" type="line"/>
      <point x="162" y="0" type="line"/>
      <point x="290" y="0" type="line"/>
      <point x="290" y="655" type="line"/>
      <point x="326" y="786"/>
      <point x="485" y="949"/>
      <point x="600" y="949" type="curve" smooth="yes"/>
      <point x="709" y="949"/>
      <point x="849" y="838"/>
      <point x="849" y="703" type="curve" smooth="yes"/>
      <point x="849" y="0" type="line"/>
      <point x="977" y="0" type="line"/>
    </contour>
  </outline>
</glyph>
<glyph name="r" format="2">
  <advance width="682"/>
  <unicode hex="0072"/>
  <outline>
    <contour>
      <point x="721" y="995" type="curve"/>
      <point x="699" y="1006"/>
      <point x="607" y="1074"/>
      <point x="509" y="1074" type="curve" smooth="yes"/>
      <point x="407" y="1074"/>
      <point x="360" y="1042"/>
      <point x="288" y="935" type="curve"/>
      <point x="288" y="1054" type="line"/>
      <point x="154" y="1054" type="line"/>
      <point x="154" y="0" type="line"/>
      <point x="282" y="0" type="line"/>
      <point x="282" y="591" type="line" smooth="yes"/>
      <point x="282" y="710"/>
      <point x="369" y="948"/>
      <point x="501" y="948" type="curve" smooth="yes"/>
      <point x="546" y="948"/>
      <point x="605" y="927"/>
      <point x="641" y="900" type="curve"/>
      <point x="657" y="900"/>
      <point x="713" y="977"/>
    </contour>
  </outline>
</glyph>
<glyph name="t" format="2">
  <advance width="569"/>
  <unicode hex="0074"/>
  <outline>
    <contour>
      <point x="577" y="4" type="curve"/>
      <point x="564" y="36"/>
      <point x="551" y="79"/>
      <point x="538" y="132" type="curve"/>
      <point x="495" y="117"/>
      <point x="467" y="111"/>
      <point x="430" y="111" type="curve" smooth="yes"/>
      <point x="366" y="111"/>
      <point x="330" y="140"/>
      <point x="330" y="204" type="curve" smooth="yes"/>
      <point x="330" y="927" type="line"/>
      <point x="530" y="927" type="line"/>
      <point x="530" y="1054" type="line"/>
      <point x="330" y="1054" type="line"/>
      <point x="330" y="1330" type="line"/>
      <point x="202" y="1330" type="line"/>
      <point x="202" y="1054" type="line"/>
      <point x="58" y="1054" type="line"/>
      <point x="58" y="927" type="line"/>
      <point x="202" y="927" type="line"/>
      <point x="202" y="188" type="line" smooth="yes"/>
      <point x="202" y="49"/>
      <point x="274" y="-20"/>
      <point x="417" y="-20" type="curve" smooth="yes"/>
      <point x="468" y="-20"/>
      <point x="524" y="-7"/>
    </contour>
  </outline>
</glyph>
<glyph name="u" format="2">
  <advance width="1139"/>
  <unicode hex="0075"/>
  <outline>
    <contour>
      <point x="969" y="1054" type="line"/>
      <point x="841" y="1054" type="line"/>
      <point x="841" y="388" type="line"/>
      <point x="793" y="249"/>
      <point x="654" y="107"/>
      <point x="529" y="107" type="curve" smooth="yes"/>
      <point x="407" y="107"/>
      <point x="282" y="220"/>
      <point x="282" y="348" type="curve" smooth="yes"/>
      <point x="282" y="1054" type="line"/>
      <point x="154" y="1054" type="line"/>
      <point x="154" y="332" type="line" smooth="yes"/>
      <point x="154" y="161"/>
      <point x="328" y="-20"/>
      <point x="517" y="-20" type="curve" smooth="yes"/>
      <point x="630" y="-20"/>
      <point x="729" y="28"/>
      <point x="833" y="132" type="curve"/>
      <point x="839" y="113"/>
      <point x="842" y="92"/>
      <point x="842" y="71" type="curve" smooth="yes"/>
      <point x="842" y="47"/>
      <point x="839" y="25"/>
      <point x="833" y="4" type="curve"/>
      <point x="969" y="4" type="line"/>
    </contour>
  </outline>
</glyph>
<glyph name="v" format="2">
  <advance width="1024"/>
  <unicode hex="0076"/>
  <outline>
    <contour>
      <point x="817" y="1054" type="line"/>
      <point x="514" y="232" type="line"/>
      <point x="210" y="1054" type="line"/>
      <point x="74" y="1054" type="line"/>
      <point x="457" y="0" type="line"/>
      <point x="584" y="0" type="line"/>
      <point x="953" y="1054" type="line"/>
    </contour>
  </outline>
</glyph>
<glyph name="braceleft" format="2">
  <advance width="684"/>
  <unicode hex="007B"/>
  <outline>
    <contour>
      <point x="633" y="-279" type="line"/>
      <point x="485" y="-279"/>
      <point x="427" y="-240"/>
      <point x="427" y="-147" type="curve" smooth="yes"/>
      <point x="427" y="183" type="line" smooth="yes"/>
      <point x="427" y="365"/>
      <point x="349" y="437"/>
      <point x="213" y="541" type="curve"/>
      <point x="372" y="634"/>
      <point x="427" y="721"/>
      <point x="427" y="878" type="curve" smooth="yes"/>
      <point x="427" y="1184" type="line" smooth="yes"/>
      <point x="427" y="1300"/>
      <point x="482" y="1340"/>
      <point x="633" y="1340" type="curve"/>
      <point x="633" y="1465" type="line"/>
      <point x="495" y="1465" type="line"/>
      <point x="336" y="1412"/>
      <point x="281" y="1331"/>
      <point x="281" y="1160" type="curve" smooth="yes"/>
      <point x="281" y="829" type="line" smooth="yes"/>
      <point x="281" y="714"/>
      <point x="191" y="602"/>
      <point x="74" y="602" type="curve"/>
      <point x="74" y="467" type="line"/>
      <point x="200" y="451"/>
      <point x="281" y="363"/>
      <point x="281" y="240" type="curve" smooth="yes"/>
      <point x="281" y="-74" type="line" smooth="yes"/>
      <point x="281" y="-274"/>
      <point x="341" y="-356"/>
      <point x="506" y="-404" type="curve"/>
      <point x="633" y="-404" type="line"/>
    </contour>
  </outline>
</glyph>
<glyph name="exclamdown" format="2">
  <advance width="303"/>
  <unicode hex="00A1"/>
  <outline>
    <contour>
      <point x="253" y="1493" type="line"/>
      <point x="50" y="1493" type="line"/>
      <point x="50" y="1239" type="line"/>
      <point x="253" y="1239" type="line"/>
    </contour>
    <contour>
      <point x="253" y="655" type="line"/>
      <point x="253" y="1012" type="line"/>
      <point x="71" y="1012" type="line"/>
      <point x="71" y="655" type="line"/>
      <point x="71" y="0" type="line"/>
      <point x="253" y="0" type="line"/>
    </contour>
  </outline>
</glyph>
<glyph name="sterling" format="2">
  <advance width="1093"/>
  <unicode hex="00A3"/>
  <outline>
    <contour>
      <point x="1023" y="1460" type="line"/>
      <point x="918" y="1499"/>
      <point x="813" y="1520"/>
      <point x="732" y="1520" type="curve" smooth="yes"/>
      <point x="423" y="1520"/>
      <point x="286" y="1364"/>
      <point x="286" y="1016" type="curve" smooth="yes"/>
      <point x="286" y="778" type="line"/>
      <point x="87" y="778" type="line"/>
      <point x="87" y="635" type="line"/>
      <point x="286" y="635" type="line"/>
      <point x="286" y="170" type="line"/>
      <point x="50" y="170" type="line"/>
      <point x="50" y="0" type="line"/>
      <point x="1043" y="0" type="line"/>
      <point x="1043" y="170" type="line"/>
      <point x="486" y="170" type="line"/>
      <point x="486" y="635" type="line"/>
      <point x="877" y="635" type="line"/>
      <point x="877" y="778" type="line"/>
      <point x="486" y="778" type="line"/>
      <point x="486" y="993" type="line" smooth="yes"/>
      <point x="486" y="1280"/>
      <point x="554" y="1360"/>
      <point x="750" y="1360" type="curve" smooth="yes"/>
      <point x="831" y="1360"/>
      <point x="922" y="1333"/>
      <point x="1023" y="1278" type="curve"/>
    </contour>
  </outline>
</glyph>
<glyph name="bullet" format="2">
  <advance width="692"/>
  <unicode hex="2022"/>
  <outline>
    <contour>
      <point x="50" y="740" type="curve" smooth="yes"/>
      <point x="50" y="576"/>
      <point x="182" y="444"/>
      <point x="346" y="444" type="curve" smooth="yes"/>
      <point x="508" y="444"/>
      <point x="642" y="577"/>
      <point x="642" y="740" type="curve" smooth="yes"/>
      <point x="642" y="903"/>
      <point x="508" y="1036"/>
      <point x="345" y="1036" type="curve" smooth="yes"/>
      <point x="184" y="1036"/>
      <point x="50" y="902"/>
    </contour>
  </outline>
</glyph>
<glyph name="ellipsis" format="2">
  <advance width="1676"/>
  <unicode hex="2026"/>
  <outline>
    <contour>
      <point x="732" y="0" type="line"/>
      <point x="944" y="0" type="line"/>
      <point x="944" y="254" type="line"/>
      <point x="732" y="254" type="line"/>
    </contour>
    <contour>
      <point x="1413" y="0" type="line"/>
      <point x="1626" y="0" type="line"/>
      <point x="1626" y="254" type="line"/>
      <point x="1413" y="254" type="line"/>
    </contour>
    <contour>
      <point x="50" y="0" type="line"/>
      <point x="263" y="0" type="line"/>
      <point x="263" y="254" type="line"/>
      <point x="50" y="254" type="line"/>
    </contour>
  </outline>
</glyph>
<glyph name="shift" format="2">
  <advance width="1967"/>
  <unicode hex="E008"/>
  <outline>
    <contour>
      <point x="1187" y="147" type="line"/>
      <point x="780" y="147" type="line"/>
      <point x="780" y="679" type="line"/>
      <point x="277" y="679" type="line"/>
      <point x="970" y="1371" type="line"/>
      <point x="998" y="1371" type="line"/>
      <point x="1690" y="679" type="line"/>
      <point x="1187" y="679" type="line"/>
    </contour>
    <contour>
      <point x="1113" y="1568" type="line"/>
      <point x="1069" y="1612"/>
      <point x="1026" y="1634"/>
      <point x="984" y="1634" type="curve" smooth="yes"/>
      <point x="941" y="1634"/>
      <point x="898" y="1612"/>
      <point x="854" y="1568" type="curve" smooth="yes"/>
      <point x="104" y="818" type="line" smooth="yes"/>
      <point x="69" y="783"/>
      <point x="50" y="726"/>
      <point x="50" y="661" type="curve" smooth="yes"/>
      <point x="50" y="521"/>
      <point x="150" y="458"/>
      <point x="233" y="458" type="curve" smooth="yes"/>
      <point x="599" y="458" type="line"/>
      <point x="599" y="159" type="line" smooth="yes"/>
      <point x="599" y="36"/>
      <point x="681" y="-64"/>
      <point x="782" y="-64" type="curve" smooth="yes"/>
      <point x="1185" y="-64" type="line" smooth="yes"/>
      <point x="1286" y="-64"/>
      <point x="1368" y="36"/>
      <point x="1368" y="159" type="curve" smooth="yes"/>
      <point x="1368" y="456" type="line"/>
      <point x="1734" y="456" type="line" smooth="yes"/>
      <point x="1817" y="456"/>
      <point x="1917" y="517"/>
      <point x="1917" y="661" type="curve" smooth="yes"/>
      <point x="1917" y="725"/>
      <point x="1898" y="782"/>
      <point x="1863" y="818" type="curve" smooth="yes"/>
    </contour>
  </outline>
</glyph>
<glyph name="uppercase" format="2">
  <advance width="3052"/>
  <unicode hex="E010"/>
  <outline>
    <contour>
      <point x="514" y="1033" type="line"/>
      <point x="525" y="1060"/>
      <point x="535" y="1082"/>
      <point x="544" y="1111" type="curve"/>
      <point x="550" y="1094" type="line" smooth="yes"/>
      <point x="558" y="1071"/>
      <point x="565" y="1054"/>
      <point x="573" y="1033" type="curve" smooth="yes"/>
      <point x="696" y="699" type="line"/>
      <point x="392" y="699" type="line"/>
    </contour>
    <contour>
      <point x="1763" y="1029" type="curve" smooth="yes"/>
      <point x="1763" y="934"/>
      <point x="1699" y="882"/>
      <point x="1591" y="882" type="curve" smooth="yes"/>
      <point x="1315" y="882" type="line"/>
      <point x="1315" y="1183" type="line"/>
      <point x="1598" y="1183" type="line" smooth="yes"/>
      <point x="1694" y="1183"/>
      <point x="1763" y="1125"/>
    </contour>
    <contour>
      <point x="1798" y="556" type="curve" smooth="yes"/>
      <point x="1798" y="459"/>
      <point x="1718" y="388"/>
      <point x="1621" y="388" type="curve" smooth="yes"/>
      <point x="1315" y="388" type="line"/>
      <point x="1315" y="727" type="line"/>
      <point x="1609" y="727" type="line" smooth="yes"/>
      <point x="1733" y="727"/>
      <point x="1798" y="669"/>
    </contour>
    <contour>
      <point x="2986" y="1018" type="line"/>
      <point x="2997" y="1020"/>
      <point x="3002" y="1026"/>
      <point x="3002" y="1037" type="curve" smooth="yes"/>
      <point x="3002" y="1040"/>
      <point x="3002" y="1042"/>
      <point x="3001" y="1043" type="curve"/>
      <point x="2942" y="1253"/>
      <point x="2805" y="1358"/>
      <point x="2591" y="1358" type="curve" smooth="yes"/>
      <point x="2579" y="1358" type="line" smooth="yes"/>
      <point x="2246" y="1353"/>
      <point x="2078" y="1169"/>
      <point x="2074" y="808" type="curve" smooth="yes"/>
      <point x="2074" y="795" type="line" smooth="yes"/>
      <point x="2074" y="430"/>
      <point x="2240" y="247"/>
      <point x="2572" y="246" type="curve" smooth="yes"/>
      <point x="2575" y="246" type="line" smooth="yes"/>
      <point x="2815" y="246"/>
      <point x="2955" y="362"/>
      <point x="3002" y="594" type="curve"/>
      <point x="3002" y="598" type="line" smooth="yes"/>
      <point x="3002" y="609"/>
      <point x="2997" y="616"/>
      <point x="2986" y="618" type="curve" smooth="yes"/>
      <point x="2869" y="641" type="line"/>
      <point x="2858" y="641"/>
      <point x="2851" y="636"/>
      <point x="2848" y="625" type="curve"/>
      <point x="2813" y="460"/>
      <point x="2716" y="379"/>
      <point x="2563" y="376" type="curve"/>
      <point x="2352" y="391"/>
      <point x="2236" y="538"/>
      <point x="2236" y="789" type="curve" smooth="yes"/>
      <point x="2236" y="799" type="line" smooth="yes"/>
      <point x="2239" y="1053"/>
      <point x="2364" y="1201"/>
      <point x="2572" y="1214" type="curve"/>
      <point x="2713" y="1211"/>
      <point x="2808" y="1145"/>
      <point x="2847" y="1009" type="curve" smooth="yes"/>
      <point x="2850" y="999"/>
      <point x="2857" y="994"/>
      <point x="2867" y="994" type="curve" smooth="yes"/>
      <point x="2870" y="994" type="line"/>
    </contour>
    <contour>
      <point x="203" y="239" type="line"/>
      <point x="210" y="239"/>
      <point x="219" y="245"/>
      <point x="222" y="252" type="curve" smooth="yes"/>
      <point x="339" y="563" type="line"/>
      <point x="747" y="563" type="line"/>
      <point x="864" y="252" type="line" smooth="yes"/>
      <point x="867" y="245"/>
      <point x="876" y="239"/>
      <point x="883" y="239" type="curve" smooth="yes"/>
      <point x="1018" y="239" type="line" smooth="yes"/>
      <point x="1031" y="239"/>
      <point x="1038" y="245"/>
      <point x="1038" y="258" type="curve" smooth="yes"/>
      <point x="1038" y="261"/>
      <point x="1037" y="264"/>
      <point x="1035" y="265" type="curve"/>
      <point x="639" y="1319" type="line" smooth="yes"/>
      <point x="636" y="1326"/>
      <point x="627" y="1332"/>
      <point x="620" y="1332" type="curve" smooth="yes"/>
      <point x="467" y="1332" type="line" smooth="yes"/>
      <point x="460" y="1332"/>
      <point x="451" y="1326"/>
      <point x="448" y="1319" type="curve" smooth="yes"/>
      <point x="51" y="266" type="line" smooth="yes"/>
      <point x="50" y="264"/>
      <point x="50" y="261"/>
      <point x="50" y="258" type="curve" smooth="yes"/>
      <point x="50" y="245"/>
      <point x="57" y="239"/>
      <point x="70" y="239" type="curve" smooth="yes"/>
    </contour>
    <contour>
      <point x="1969" y="558" type="curve" smooth="yes"/>
      <point x="1969" y="685"/>
      <point x="1921" y="755"/>
      <point x="1785" y="819" type="curve"/>
      <point x="1877" y="874"/>
      <point x="1916" y="942"/>
      <point x="1916" y="1042" type="curve" smooth="yes"/>
      <point x="1916" y="1207"/>
      <point x="1766" y="1332"/>
      <point x="1609" y="1332" type="curve" smooth="yes"/>
      <point x="1168" y="1332" type="line" smooth="yes"/>
      <point x="1157" y="1332"/>
      <point x="1148" y="1323"/>
      <point x="1148" y="1312" type="curve" smooth="yes"/>
      <point x="1148" y="259" type="line" smooth="yes"/>
      <point x="1148" y="248"/>
      <point x="1157" y="239"/>
      <point x="1168" y="239" type="curve" smooth="yes"/>
      <point x="1627" y="239" type="line" smooth="yes"/>
      <point x="1825" y="239"/>
      <point x="1969" y="361"/>
    </contour>
  </outline>
</glyph>
<glyph name="pin" format="2">
  <advance width="1812"/>
  <unicode hex="E024"/>
  <outline>
    <contour>
      <point x="924" y="1124" type="line"/>
      <point x="828" y="1171"/>
      <point x="727" y="1193"/>
      <point x="626" y="1193" type="curve" smooth="yes"/>
      <point x="459" y="1193"/>
      <point x="298" y="1133"/>
      <point x="173" y="1008" type="curve"/>
      <point x="586" y="595" type="line"/>
      <point x="50" y="59" type="line"/>
      <point x="177" y="-68" type="line"/>
      <point x="713" y="468" type="line"/>
      <point x="1126" y="55" type="line"/>
      <point x="1251" y="180"/>
      <point x="1311" y="341"/>
      <point x="1311" y="508" type="curve" smooth="yes"/>
      <point x="1311" y="609"/>
      <point x="1289" y="710"/>
      <point x="1242" y="806" type="curve"/>
      <point x="1546" y="1109" type="line"/>
      <point x="1641" y="1014" type="line"/>
      <point x="1762" y="1134" type="line"/>
      <point x="1252" y="1644" type="line"/>
      <point x="1132" y="1523" type="line"/>
      <point x="1227" y="1428" type="line"/>
    </contour>
  </outline>
</glyph>
<glyph name="gearwheel" format="2">
  <advance width="1779"/>
  <unicode hex="E030"/>
  <outline>
    <contour>
      <point x="889" y="1153" type="curve" smooth="yes"/>
      <point x="1135" y="1153"/>
      <point x="1335" y="953"/>
      <point x="1335" y="707" type="curve" smooth="yes"/>
      <point x="1335" y="461"/>
      <point x="1135" y="260"/>
      <point x="889" y="260" type="curve" smooth="yes"/>
      <point x="643" y="260"/>
      <point x="442" y="461"/>
      <point x="442" y="707" type="curve" smooth="yes"/>
      <point x="442" y="953"/>
      <point x="643" y="1153"/>
    </contour>
    <contour>
      <point x="818" y="1545" type="line"/>
      <point x="784" y="1347" type="line"/>
      <point x="741" y="1340"/>
      <point x="700" y="1329"/>
      <point x="661" y="1314" type="curve"/>
      <point x="530" y="1469" type="line"/>
      <point x="409" y="1398" type="line"/>
      <point x="478" y="1208" type="line"/>
      <point x="445" y="1181"/>
      <point x="415" y="1151"/>
      <point x="388" y="1118" type="curve"/>
      <point x="197" y="1188" type="line"/>
      <point x="128" y="1065" type="line"/>
      <point x="283" y="935" type="line"/>
      <point x="268" y="896"/>
      <point x="257" y="855"/>
      <point x="250" y="812" type="curve"/>
      <point x="50" y="777" type="line"/>
      <point x="50" y="636" type="line"/>
      <point x="250" y="602" type="line"/>
      <point x="257" y="559"/>
      <point x="268" y="518"/>
      <point x="283" y="479" type="curve"/>
      <point x="128" y="348" type="line"/>
      <point x="197" y="227" type="line"/>
      <point x="388" y="296" type="line"/>
      <point x="415" y="263"/>
      <point x="445" y="233"/>
      <point x="478" y="206" type="curve"/>
      <point x="409" y="15" type="line"/>
      <point x="530" y="-54" type="line"/>
      <point x="661" y="101" type="line"/>
      <point x="700" y="86"/>
      <point x="741" y="75"/>
      <point x="784" y="68" type="curve"/>
      <point x="818" y="-132" type="line"/>
      <point x="959" y="-132" type="line"/>
      <point x="994" y="68" type="line"/>
      <point x="1037" y="75"/>
      <point x="1078" y="86"/>
      <point x="1118" y="101" type="curve"/>
      <point x="1247" y="-54" type="line"/>
      <point x="1370" y="15" type="line"/>
      <point x="1300" y="206" type="line"/>
      <point x="1333" y="233"/>
      <point x="1363" y="263"/>
      <point x="1390" y="296" type="curve"/>
      <point x="1580" y="227" type="line"/>
      <point x="1651" y="348" type="line"/>
      <point x="1496" y="479" type="line"/>
      <point x="1511" y="518"/>
      <point x="1522" y="559"/>
      <point x="1529" y="602" type="curve"/>
      <point x="1729" y="636" type="line"/>
      <point x="1729" y="777" type="line"/>
      <point x="1529" y="812" type="line"/>
      <point x="1522" y="855"/>
      <point x="1511" y="896"/>
      <point x="1496" y="935" type="curve"/>
      <point x="1651" y="1065" type="line"/>
      <point x="1580" y="1188" type="line"/>
      <point x="1390" y="1118" type="line"/>
      <point x="1363" y="1151"/>
      <point x="1333" y="1181"/>
      <point x="1300" y="1208" type="curve"/>
      <point x="1370" y="1398" type="line"/>
      <point x="1247" y="1469" type="line"/>
      <point x="1118" y="1314" type="line"/>
      <point x="1078" y="1329"/>
      <point x="1037" y="1340"/>
      <point x="994" y="1347" type="curve"/>
      <point x="959" y="1545" type="line"/>
    </contour>
  </outline>
</glyph>
<glyph name="info_1" format="2">
  <advance width="2090"/>
  <unicode hex="E041"/>
  <outline>
    <contour>
      <point x="50" y="787" type="curve" smooth="yes"/>
      <point x="50" y="236"/>
      <point x="495" y="-208"/>
      <point x="1045" y="-208" type="curve" smooth="yes"/>
      <point x="1594" y="-208"/>
      <point x="2040" y="237"/>
      <point x="2040" y="787" type="curve" smooth="yes"/>
      <point x="2040" y="1336"/>
      <point x="1594" y="1782"/>
      <point x="1045" y="1782" type="curve" smooth="yes"/>
      <point x="494" y="1782"/>
      <point x="50" y="1336"/>
    </contour>
    <contour>
      <point x="772" y="785" type="line"/>
      <point x="745" y="832" type="line"/>
      <point x="747" y="848" type="line"/>
      <point x="847" y="925"/>
      <point x="928" y="981"/>
      <point x="989" y="1017" type="curve" smooth="yes"/>
      <point x="1046" y="1050"/>
      <point x="1094" y="1067"/>
      <point x="1133" y="1067" type="curve" smooth="yes"/>
      <point x="1184" y="1067"/>
      <point x="1223" y="1033"/>
      <point x="1223" y="985" type="curve" smooth="yes"/>
      <point x="1223" y="929"/>
      <point x="1215" y="905"/>
      <point x="1156" y="685" type="curve" smooth="yes"/>
      <point x="1111" y="517"/>
      <point x="1088" y="418"/>
      <point x="1087" y="388" type="curve"/>
      <point x="1106" y="400"/>
      <point x="1137" y="422"/>
      <point x="1182" y="454" type="curve"/>
      <point x="1237" y="453" type="line"/>
      <point x="1267" y="401" type="line"/>
      <point x="1261" y="386" type="line"/>
      <point x="1183" y="332"/>
      <point x="1047" y="235"/>
      <point x="991" y="214" type="curve" smooth="yes"/>
      <point x="968" y="205"/>
      <point x="943" y="200"/>
      <point x="917" y="200" type="curve" smooth="yes"/>
      <point x="849" y="200"/>
      <point x="815" y="243"/>
      <point x="815" y="304" type="curve" smooth="yes"/>
      <point x="815" y="358"/>
      <point x="821" y="398"/>
      <point x="866" y="558" type="curve"/>
      <point x="905" y="706"/>
      <point x="928" y="812"/>
      <point x="931" y="851" type="curve"/>
      <point x="910" y="839"/>
      <point x="876" y="815"/>
      <point x="828" y="782" type="curve"/>
    </contour>
    <contour>
      <point x="1016" y="1295" type="curve" smooth="yes"/>
      <point x="1016" y="1374"/>
      <point x="1080" y="1437"/>
      <point x="1168" y="1437" type="curve" smooth="yes"/>
      <point x="1251" y="1437"/>
      <point x="1299" y="1393"/>
      <point x="1299" y="1325" type="curve" smooth="yes"/>
      <point x="1299" y="1263"/>
      <point x="1259" y="1176"/>
      <point x="1148" y="1176" type="curve" smooth="yes"/>
      <point x="1055" y="1176"/>
      <point x="1016" y="1226"/>
    </contour>
  </outline>
</glyph>
<glyph name="facebook_2" format="2">
  <advance width="2090"/>
  <unicode hex="E053"/>
  <outline>
    <contour>
      <point x="666" y="821" type="line"/>
      <point x="822" y="821" type="line"/>
      <point x="822" y="90" type="line"/>
      <point x="1123" y="90" type="line"/>
      <point x="1123" y="821" type="line"/>
      <point x="1343" y="821" type="line"/>
      <point x="1363" y="1032" type="line"/>
      <point x="1123" y="1032" type="line"/>
      <point x="1123" y="1107" type="line" smooth="yes"/>
      <point x="1123" y="1215"/>
      <point x="1153" y="1245"/>
      <point x="1227" y="1245" type="curve" smooth="yes"/>
      <point x="1266" y="1245"/>
      <point x="1312" y="1239"/>
      <point x="1365" y="1226" type="curve"/>
      <point x="1404" y="1423" type="line"/>
      <point x="1322" y="1448"/>
      <point x="1240" y="1461"/>
      <point x="1159" y="1461" type="curve" smooth="yes"/>
      <point x="991" y="1461"/>
      <point x="886" y="1392"/>
      <point x="851" y="1312" type="curve" smooth="yes"/>
      <point x="831" y="1267"/>
      <point x="822" y="1200"/>
      <point x="822" y="1112" type="curve" smooth="yes"/>
      <point x="822" y="1032" type="line"/>
      <point x="666" y="1032" type="line"/>
    </contour>
    <contour>
      <point x="249" y="789" type="curve" smooth="yes"/>
      <point x="249" y="1228"/>
      <point x="606" y="1585"/>
      <point x="1045" y="1585" type="curve" smooth="yes"/>
      <point x="1484" y="1585"/>
      <point x="1841" y="1228"/>
      <point x="1841" y="789" type="curve" smooth="yes"/>
      <point x="1841" y="350"/>
      <point x="1484" y="-7"/>
      <point x="1045" y="-7" type="curve" smooth="yes"/>
      <point x="606" y="-7"/>
      <point x="249" y="350"/>
    </contour>
    <contour>
      <point x="50" y="789" type="curve" smooth="yes"/>
      <point x="50" y="238"/>
      <point x="495" y="-206"/>
      <point x="1045" y="-206" type="curve" smooth="yes"/>
      <point x="1594" y="-206"/>
      <point x="2040" y="239"/>
      <point x="2040" y="789" type="curve" smooth="yes"/>
      <point x="2040" y="1338"/>
      <point x="1594" y="1784"/>
      <point x="1045" y="1784" type="curve" smooth="yes"/>
      <point x="494" y="1784"/>
      <point x="50" y="1338"/>
    </contour>
  </outline>
</glyph>
<glyph name="left_ctrl" format="2">
  <advance width="2919"/>
  <unicode hex="E058"/>
  <outline>
    <contour>
      <point x="2869" y="1309" type="line"/>
      <point x="2869" y="1320"/>
      <point x="2860" y="1329"/>
      <point x="2849" y="1329" type="curve" smooth="yes"/>
      <point x="2756" y="1329" type="line" smooth="yes"/>
      <point x="2745" y="1329"/>
      <point x="2736" y="1320"/>
      <point x="2736" y="1309" type="curve" smooth="yes"/>
      <point x="2736" y="257" type="line" smooth="yes"/>
      <point x="2736" y="246"/>
      <point x="2745" y="237"/>
      <point x="2756" y="237" type="curve" smooth="yes"/>
      <point x="2849" y="237" type="line" smooth="yes"/>
      <point x="2860" y="237"/>
      <point x="2869" y="246"/>
      <point x="2869" y="257" type="curve" smooth="yes"/>
    </contour>
    <contour>
      <point x="2644" y="998" type="line"/>
      <point x="2615" y="1009"/>
      <point x="2558" y="1056"/>
      <point x="2483" y="1056" type="curve" smooth="yes"/>
      <point x="2426" y="1056"/>
      <point x="2380" y="1035"/>
      <point x="2343" y="996" type="curve"/>
      <point x="2343" y="1021" type="line" smooth="yes"/>
      <point x="2343" y="1032"/>
      <point x="2334" y="1041"/>
      <point x="2323" y="1041" type="curve" smooth="yes"/>
      <point x="2225" y="1041" type="line" smooth="yes"/>
      <point x="2214" y="1041"/>
      <point x="2205" y="1032"/>
      <point x="2205" y="1021" type="curve" smooth="yes"/>
      <point x="2205" y="257" type="line" smooth="yes"/>
      <point x="2205" y="246"/>
      <point x="2214" y="237"/>
      <point x="2225" y="237" type="curve" smooth="yes"/>
      <point x="2318" y="237" type="line" smooth="yes"/>
      <point x="2329" y="237"/>
      <point x="2338" y="246"/>
      <point x="2338" y="257" type="curve" smooth="yes"/>
      <point x="2338" y="686" type="line" smooth="yes"/>
      <point x="2338" y="766"/>
      <point x="2394" y="925"/>
      <point x="2478" y="925" type="curve" smooth="yes"/>
      <point x="2506" y="925"/>
      <point x="2545" y="910"/>
      <point x="2572" y="890" type="curve"/>
      <point x="2590" y="890"/>
      <point x="2650" y="955"/>
      <point x="2656" y="972" type="curve"/>
    </contour>
    <contour>
      <point x="2105" y="282" type="line"/>
      <point x="2096" y="303"/>
      <point x="2088" y="332"/>
      <point x="2079" y="371" type="curve" smooth="yes"/>
      <point x="2076" y="382"/>
      <point x="2068" y="387"/>
      <point x="2059" y="387" type="curve" smooth="yes"/>
      <point x="2056" y="387"/>
      <point x="2053" y="387"/>
      <point x="2052" y="386" type="curve" smooth="yes"/>
      <point x="2023" y="375"/>
      <point x="2004" y="372"/>
      <point x="1980" y="372" type="curve" smooth="yes"/>
      <point x="1945" y="372"/>
      <point x="1927" y="388"/>
      <point x="1927" y="419" type="curve" smooth="yes"/>
      <point x="1927" y="924" type="line"/>
      <point x="2052" y="924" type="line" smooth="yes"/>
      <point x="2063" y="924"/>
      <point x="2072" y="933"/>
      <point x="2072" y="944" type="curve" smooth="yes"/>
      <point x="2072" y="1036" type="line" smooth="yes"/>
      <point x="2072" y="1047"/>
      <point x="2063" y="1056"/>
      <point x="2052" y="1056" type="curve" smooth="yes"/>
      <point x="1927" y="1056" type="line"/>
      <point x="1927" y="1237" type="line" smooth="yes"/>
      <point x="1927" y="1248"/>
      <point x="1918" y="1257"/>
      <point x="1907" y="1257" type="curve" smooth="yes"/>
      <point x="1814" y="1257" type="line" smooth="yes"/>
      <point x="1803" y="1257"/>
      <point x="1794" y="1248"/>
      <point x="1794" y="1237" type="curve" smooth="yes"/>
      <point x="1794" y="1056" type="line"/>
      <point x="1710" y="1056" type="line" smooth="yes"/>
      <point x="1699" y="1056"/>
      <point x="1690" y="1047"/>
      <point x="1690" y="1036" type="curve" smooth="yes"/>
      <point x="1690" y="944" type="line" smooth="yes"/>
      <point x="1690" y="933"/>
      <point x="1699" y="924"/>
      <point x="1710" y="924" type="curve" smooth="yes"/>
      <point x="1794" y="924" type="line"/>
      <point x="1794" y="408" type="line" smooth="yes"/>
      <point x="1794" y="294"/>
      <point x="1853" y="237"/>
      <point x="1970" y="237" type="curve" smooth="yes"/>
      <point x="2003" y="237"/>
      <point x="2032" y="242"/>
      <point x="2063" y="249" type="curve" smooth="yes"/>
      <point x="2090" y="254" type="line"/>
    </contour>
    <contour>
      <point x="1592" y="1001" type="line"/>
      <point x="1603" y="1003"/>
      <point x="1608" y="1009"/>
      <point x="1608" y="1020" type="curve" smooth="yes"/>
      <point x="1608" y="1023"/>
      <point x="1608" y="1025"/>
      <point x="1607" y="1026" type="curve"/>
      <point x="1548" y="1236"/>
      <point x="1411" y="1341"/>
      <point x="1197" y="1341" type="curve" smooth="yes"/>
      <point x="1185" y="1341" type="line" smooth="yes"/>
      <point x="852" y="1336"/>
      <point x="684" y="1152"/>
      <point x="680" y="791" type="curve" smooth="yes"/>
      <point x="680" y="778" type="line" smooth="yes"/>
      <point x="680" y="413"/>
      <point x="846" y="230"/>
      <point x="1178" y="229" type="curve" smooth="yes"/>
      <point x="1181" y="229" type="line" smooth="yes"/>
      <point x="1421" y="229"/>
      <point x="1561" y="345"/>
      <point x="1608" y="577" type="curve"/>
      <point x="1608" y="581" type="line" smooth="yes"/>
      <point x="1608" y="592"/>
      <point x="1603" y="599"/>
      <point x="1592" y="601" type="curve" smooth="yes"/>
      <point x="1475" y="624" type="line"/>
      <point x="1464" y="624"/>
      <point x="1457" y="619"/>
      <point x="1454" y="608" type="curve"/>
      <point x="1419" y="443"/>
      <point x="1322" y="362"/>
      <point x="1169" y="359" type="curve"/>
      <point x="958" y="374"/>
      <point x="842" y="521"/>
      <point x="842" y="772" type="curve" smooth="yes"/>
      <point x="842" y="782" type="line" smooth="yes"/>
      <point x="845" y="1036"/>
      <point x="970" y="1184"/>
      <point x="1178" y="1197" type="curve"/>
      <point x="1319" y="1194"/>
      <point x="1414" y="1128"/>
      <point x="1453" y="992" type="curve" smooth="yes"/>
      <point x="1456" y="982"/>
      <point x="1463" y="977"/>
      <point x="1473" y="977" type="curve" smooth="yes"/>
      <point x="1476" y="977" type="line"/>
    </contour>
    <contour>
      <point x="676" y="373" type="line"/>
      <point x="215" y="373" type="line"/>
      <point x="215" y="1332" type="line"/>
      <point x="50" y="1332" type="line"/>
      <point x="50" y="238" type="line"/>
      <point x="676" y="238" type="line"/>
    </contour>
  </outline>
</glyph>
<glyph name="right_ctrl_shift" format="2">
  <advance width="4182"/>
  <unicode hex="E070"/>
  <outline>
    <contour>
      <point x="4132" y="1309" type="line"/>
      <point x="4132" y="1320"/>
      <point x="4123" y="1329"/>
      <point x="4112" y="1329" type="curve" smooth="yes"/>
      <point x="4019" y="1329" type="line" smooth="yes"/>
      <point x="4008" y="1329"/>
      <point x="3999" y="1320"/>
      <point x="3999" y="1309" type="curve" smooth="yes"/>
      <point x="3999" y="257" type="line" smooth="yes"/>
      <point x="3999" y="246"/>
      <point x="4008" y="237"/>
      <point x="4019" y="237" type="curve" smooth="yes"/>
      <point x="4112" y="237" type="line" smooth="yes"/>
      <point x="4123" y="237"/>
      <point x="4132" y="246"/>
      <point x="4132" y="257" type="curve" smooth="yes"/>
    </contour>
    <contour>
      <point x="3907" y="998" type="line"/>
      <point x="3878" y="1009"/>
      <point x="3821" y="1056"/>
      <point x="3746" y="1056" type="curve" smooth="yes"/>
      <point x="3689" y="1056"/>
      <point x="3643" y="1035"/>
      <point x="3606" y="996" type="curve"/>
      <point x="3606" y="1021" type="line" smooth="yes"/>
      <point x="3606" y="1032"/>
      <point x="3597" y="1041"/>
      <point x="3586" y="1041" type="curve" smooth="yes"/>
      <point x="3488" y="1041" type="line" smooth="yes"/>
      <point x="3477" y="1041"/>
      <point x="3468" y="1032"/>
      <point x="3468" y="1021" type="curve" smooth="yes"/>
      <point x="3468" y="257" type="line" smooth="yes"/>
      <point x="3468" y="246"/>
      <point x="3477" y="237"/>
      <point x="3488" y="237" type="curve" smooth="yes"/>
      <point x="3581" y="237" type="line" smooth="yes"/>
      <point x="3592" y="237"/>
      <point x="3601" y="246"/>
      <point x="3601" y="257" type="curve" smooth="yes"/>
      <point x="3601" y="686" type="line" smooth="yes"/>
      <point x="3601" y="766"/>
      <point x="3657" y="925"/>
      <point x="3741" y="925" type="curve" smooth="yes"/>
      <point x="3769" y="925"/>
      <point x="3808" y="910"/>
      <point x="3835" y="890" type="curve"/>
      <point x="3853" y="890"/>
      <point x="3913" y="955"/>
      <point x="3919" y="972" type="curve"/>
    </contour>
    <contour>
      <point x="3368" y="282" type="line"/>
      <point x="3359" y="303"/>
      <point x="3351" y="332"/>
      <point x="3342" y="371" type="curve" smooth="yes"/>
      <point x="3339" y="382"/>
      <point x="3331" y="387"/>
      <point x="3322" y="387" type="curve" smooth="yes"/>
      <point x="3319" y="387"/>
      <point x="3316" y="387"/>
      <point x="3315" y="386" type="curve" smooth="yes"/>
      <point x="3286" y="375"/>
      <point x="3267" y="372"/>
      <point x="3243" y="372" type="curve" smooth="yes"/>
      <point x="3208" y="372"/>
      <point x="3190" y="388"/>
      <point x="3190" y="419" type="curve" smooth="yes"/>
      <point x="3190" y="924" type="line"/>
      <point x="3315" y="924" type="line" smooth="yes"/>
      <point x="3326" y="924"/>
      <point x="3335" y="933"/>
      <point x="3335" y="944" type="curve" smooth="yes"/>
      <point x="3335" y="1036" type="line" smooth="yes"/>
      <point x="3335" y="1047"/>
      <point x="3326" y="1056"/>
      <point x="3315" y="1056" type="curve" smooth="yes"/>
      <point x="3190" y="1056" type="line"/>
      <point x="3190" y="1237" type="line" smooth="yes"/>
      <point x="3190" y="1248"/>
      <point x="3181" y="1257"/>
      <point x="3170" y="1257" type="curve" smooth="yes"/>
      <point x="3077" y="1257" type="line" smooth="yes"/>
      <point x="3066" y="1257"/>
      <point x="3057" y="1248"/>
      <point x="3057" y="1237" type="curve" smooth="yes"/>
      <point x="3057" y="1056" type="line"/>
      <point x="2973" y="1056" type="line" smooth="yes"/>
      <point x="2962" y="1056"/>
      <point x="2953" y="1047"/>
      <point x="2953" y="1036" type="curve" smooth="yes"/>
      <point x="2953" y="944" type="line" smooth="yes"/>
      <point x="2953" y="933"/>
      <point x="2962" y="924"/>
      <point x="2973" y="924" type="curve" smooth="yes"/>
      <point x="3057" y="924" type="line"/>
      <point x="3057" y="408" type="line" smooth="yes"/>
      <point x="3057" y="294"/>
      <point x="3116" y="237"/>
      <point x="3233" y="237" type="curve" smooth="yes"/>
      <point x="3266" y="237"/>
      <point x="3295" y="242"/>
      <point x="3326" y="249" type="curve" smooth="yes"/>
      <point x="3353" y="254" type="line"/>
    </contour>
    <contour>
      <point x="2855" y="1001" type="line"/>
      <point x="2866" y="1003"/>
      <point x="2871" y="1009"/>
      <point x="2871" y="1020" type="curve" smooth="yes"/>
      <point x="2871" y="1023"/>
      <point x="2871" y="1025"/>
      <point x="2870" y="1026" type="curve"/>
      <point x="2811" y="1236"/>
      <point x="2674" y="1341"/>
      <point x="2460" y="1341" type="curve" smooth="yes"/>
      <point x="2448" y="1341" type="line" smooth="yes"/>
      <point x="2115" y="1336"/>
      <point x="1947" y="1152"/>
      <point x="1943" y="791" type="curve" smooth="yes"/>
      <point x="1943" y="778" type="line" smooth="yes"/>
      <point x="1943" y="413"/>
      <point x="2109" y="230"/>
      <point x="2441" y="229" type="curve" smooth="yes"/>
      <point x="2444" y="229" type="line" smooth="yes"/>
      <point x="2684" y="229"/>
      <point x="2824" y="345"/>
      <point x="2871" y="577" type="curve"/>
      <point x="2871" y="581" type="line" smooth="yes"/>
      <point x="2871" y="592"/>
      <point x="2866" y="599"/>
      <point x="2855" y="601" type="curve" smooth="yes"/>
      <point x="2738" y="624" type="line"/>
      <point x="2727" y="624"/>
      <point x="2720" y="619"/>
      <point x="2717" y="608" type="curve"/>
      <point x="2682" y="443"/>
      <point x="2585" y="362"/>
      <point x="2432" y="359" type="curve"/>
      <point x="2221" y="374"/>
      <point x="2105" y="521"/>
      <point x="2105" y="772" type="curve" smooth="yes"/>
      <point x="2105" y="782" type="line" smooth="yes"/>
      <point x="2108" y="1036"/>
      <point x="2233" y="1184"/>
      <point x="2441" y="1197" type="curve"/>
      <point x="2582" y="1194"/>
      <point x="2677" y="1128"/>
      <point x="2716" y="992" type="curve" smooth="yes"/>
      <point x="2719" y="982"/>
      <point x="2726" y="977"/>
      <point x="2736" y="977" type="curve" smooth="yes"/>
      <point x="2739" y="977" type="line"/>
    </contour>
    <contour>
      <point x="1949" y="238" type="line"/>
      <point x="1928" y="280"/>
      <point x="1902" y="335"/>
      <point x="1843" y="458" type="curve" smooth="yes"/>
      <point x="1776" y="598"/>
      <point x="1748" y="646"/>
      <point x="1714" y="678" type="curve" smooth="yes"/>
      <point x="1690" y="700"/>
      <point x="1658" y="735"/>
      <point x="1658" y="738" type="curve" smooth="yes"/>
      <point x="1658" y="747"/>
      <point x="1690" y="753"/>
      <point x="1748" y="774" type="curve" smooth="yes"/>
      <point x="1854" y="812"/>
      <point x="1899" y="906"/>
      <point x="1899" y="1041" type="curve" smooth="yes"/>
      <point x="1899" y="1225"/>
      <point x="1770" y="1332"/>
      <point x="1587" y="1332" type="curve" smooth="yes"/>
      <point x="1153" y="1332" type="line"/>
      <point x="1153" y="238" type="line"/>
      <point x="1318" y="238" type="line"/>
      <point x="1318" y="727" type="line"/>
      <point x="1405" y="727" type="line" smooth="yes"/>
      <point x="1466" y="727"/>
      <point x="1520" y="704"/>
      <point x="1589" y="578" type="curve" smooth="yes"/>
      <point x="1658" y="452"/>
      <point x="1722" y="303"/>
      <point x="1759" y="238" type="curve"/>
    </contour>
    <contour>
      <point x="1736" y="1025" type="curve" smooth="yes"/>
      <point x="1736" y="918"/>
      <point x="1637" y="862"/>
      <point x="1517" y="862" type="curve" smooth="yes"/>
      <point x="1318" y="862" type="line"/>
      <point x="1318" y="1197" type="line"/>
      <point x="1555" y="1197" type="line" smooth="yes"/>
      <point x="1681" y="1197"/>
      <point x="1736" y="1137"/>
    </contour>
    <contour>
      <point x="659" y="374" type="line"/>
      <point x="495" y="374" type="line"/>
      <point x="495" y="720" type="line"/>
      <point x="198" y="720" type="line"/>
      <point x="568" y="1170" type="line"/>
      <point x="586" y="1170" type="line"/>
      <point x="956" y="720" type="line"/>
      <point x="659" y="720" type="line"/>
    </contour>
    <contour>
      <point x="661" y="1298" type="line"/>
      <point x="632" y="1326"/>
      <point x="604" y="1340"/>
      <point x="577" y="1340" type="curve" smooth="yes"/>
      <point x="549" y="1340"/>
      <point x="518" y="1328"/>
      <point x="493" y="1298" type="curve" smooth="yes"/>
      <point x="86" y="810" type="line" smooth="yes"/>
      <point x="66" y="786"/>
      <point x="50" y="751"/>
      <point x="50" y="708" type="curve" smooth="yes"/>
      <point x="50" y="617"/>
      <point x="115" y="576"/>
      <point x="169" y="576" type="curve" smooth="yes"/>
      <point x="377" y="576" type="line"/>
      <point x="377" y="382" type="line" smooth="yes"/>
      <point x="377" y="302"/>
      <point x="430" y="237"/>
      <point x="496" y="237" type="curve" smooth="yes"/>
      <point x="658" y="237" type="line" smooth="yes"/>
      <point x="723" y="237"/>
      <point x="777" y="302"/>
      <point x="777" y="382" type="curve" smooth="yes"/>
      <point x="777" y="575" type="line"/>
      <point x="984" y="575" type="line" smooth="yes"/>
      <point x="1038" y="575"/>
      <point x="1103" y="615"/>
      <point x="1103" y="708" type="curve" smooth="yes"/>
      <point x="1103" y="750"/>
      <point x="1089" y="785"/>
      <point x="1068" y="810" type="curve" smooth="yes"/>
    </contour>
  </outline>
</glyph>
<glyph name="zwnj_ios" format="2">
  <advance width="644"/>
  <unicode hex="E075"/>
  <outline>
    <contour>
      <point x="322" y="1171" type="line"/>
      <point x="644" y="1492" type="line"/>
      <point x="0" y="1492" type="line"/>
    </contour>
    <contour>
      <point x="260" y="-404" type="line"/>
      <point x="384" y="-404" type="line"/>
      <point x="384" y="-204" type="line"/>
      <point x="260" y="-204" type="line"/>
    </contour>
    <contour>
      <point x="260" y="-4" type="line"/>
      <point x="384" y="-4" type="line"/>
      <point x="384" y="196" type="line"/>
      <point x="260" y="196" type="line"/>
    </contour>
    <contour>
      <point x="260" y="396" type="line"/>
      <point x="384" y="396" type="line"/>
      <point x="384" y="596" type="line"/>
      <point x="260" y="596" type="line"/>
    </contour>
    <contour>
      <point x="260" y="796" type="line"/>
      <point x="384" y="796" type="line"/>
      <point x="384" y="996" type="line"/>
      <point x="260" y="996" type="line"/>
    </contour>
  </outline>
</glyph>
<glyph name="zwnj_android" format="2">
  <advance width="1770"/>
  <unicode hex="E076"/>
  <outline>
    <contour>
      <point x="1397" y="177" type="line"/>
      <point x="1750" y="531" type="line"/>
      <point x="1397" y="885" type="line"/>
    </contour>
    <contour>
      <point x="823" y="-404" type="line"/>
      <point x="947" y="-404" type="line"/>
      <point x="947" y="-64" type="line"/>
      <point x="823" y="-64" type="line"/>
    </contour>
    <contour>
      <point x="373" y="177" type="line"/>
      <point x="373" y="885" type="line"/>
      <point x="20" y="531" type="line"/>
    </contour>
    <contour>
      <point x="823" y="106" type="line"/>
      <point x="947" y="106" type="line"/>
      <point x="947" y="446" type="line"/>
      <point x="823" y="446" type="line"/>
    </contour>
    <contour>
      <point x="823" y="616" type="line"/>
      <point x="947" y="616" type="line"/>
      <point x="947" y="956" type="line"/>
      <point x="823" y="956" type="line"/>
    </contour>
    <contour>
      <point x="823" y="1126" type="line"/>
      <point x="947" y="1126" type="line"/>
      <point x="947" y="1466" type="line"/>
      <point x="823" y="1466" type="line"/>
    </contour>
  </outline>
</glyph>
<glyph name="_part.spaceside" format="2">
  <advance width="192"/>
  <outline>
    <contour>
      <point x="48" y="-144" type="line"/>
      <point x="144" y="-144" type="line"/>
      <point x="144" y="128" type="line"/>
      <point x="48" y="128" type="line"/>
    </contour>
  </outline>
</glyph>
<glyph name="_part.triangleright" format="2">
  <outline>
    <contour>
      <point x="192" y="1408" type="line"/>
      <point x="524" y="1648" type="line"/>
      <point x="192" y="1888" type="line"/>
    </contour>
  </outline>
</glyph>
<glyph name="_part.zwpart" format="2">
  <advance width="192"/>
  <outline>
    <contour>
      <point x="48" y="-350" type="line"/>
      <point x="144" y="-350" type="line"/>
      <point x="144" y="-94" type="line"/>
      <point x="48" y="-94" type="line"/>
    </contour>
  </outline>
</glyph>
